<?xml version="1.0" encoding="UTF-8" standalone="no"?>
<!-- Created with Inkscape (http://www.inkscape.org/) -->

<svg
   width="67.73333mm"
   height="67.73333mm"
   viewBox="0 0 67.73333 67.73333"
   version="1.1"
   id="svg1"
   xml:space="preserve"
   sodipodi:docname="camera.svg"
   inkscape:version="1.4 (86a8ad7, 2024-10-11)"
   xmlns:inkscape="http://www.inkscape.org/namespaces/inkscape"
   xmlns:sodipodi="http://sodipodi.sourceforge.net/DTD/sodipodi-0.dtd"
   xmlns="http://www.w3.org/2000/svg"
   xmlns:svg="http://www.w3.org/2000/svg"><sodipodi:namedview
     id="namedview1"
     pagecolor="#ffffff"
     bordercolor="#666666"
     borderopacity="1.0"
     inkscape:showpageshadow="2"
     inkscape:pageopacity="0.0"
     inkscape:pagecheckerboard="0"
     inkscape:deskcolor="#d1d1d1"
     inkscape:document-units="mm"
     inkscape:zoom="1.4378367"
     inkscape:cx="148.13922"
     inkscape:cy="211.08099"
     inkscape:window-width="1920"
     inkscape:window-height="1009"
     inkscape:window-x="-8"
     inkscape:window-y="1072"
     inkscape:window-maximized="1"
     inkscape:current-layer="layer1" /><defs
     id="defs1" /><g
     inkscape:label="Layer 1"
     inkscape:groupmode="layer"
     id="layer1"
     transform="translate(-16.700963,-22.589439)"><path
       style="fill:#ffffff"
       d="m 30.933128,75.286496 c -1.417277,-0.256093 -2.752714,-1.268265 -3.401976,-2.578472 -0.569653,-1.149555 -0.526439,-0.07154 -0.526154,-13.125262 2.68e-4,-12.259375 -0.01226,-11.724006 0.293424,-12.541014 0.465976,-1.245432 1.511759,-2.235958 2.858428,-2.707395 l 0.471574,-0.165087 4.96299,-0.01748 c 4.625305,-0.01629 4.965052,-0.02435 4.993293,-0.11843 0.01667,-0.05552 0.149107,-0.591681 0.294312,-1.191464 0.145205,-0.599783 0.334539,-1.262934 0.420743,-1.473668 0.692567,-1.693061 2.205444,-3.042728 3.990519,-3.560023 0.823541,-0.238653 1.463984,-0.271514 5.291609,-0.271514 3.822273,0 4.468542,0.033 5.286061,0.269906 1.650267,0.478229 3.047958,1.629617 3.782622,3.116045 0.307391,0.621936 0.44007,1.028236 0.689987,2.112927 0.113649,0.493263 0.220941,0.943262 0.238426,0.999998 0.02993,0.09712 0.310189,0.103217 4.787767,0.104181 5.076774,0.0011 5.111024,0.0028 5.897713,0.296516 1.293327,0.48285 2.323448,1.630442 2.73352,3.045241 l 0.13312,0.459283 v 11.671451 c 0,10.965306 -0.0063,11.694201 -0.103885,12.047473 -0.275348,0.996646 -0.610329,1.577056 -1.313919,2.276581 -0.772805,0.76834 -1.414946,1.114846 -2.469285,1.332451 -0.515349,0.106363 -1.200096,0.110038 -19.6916,0.10568 C 34.305965,75.37062 31.324585,75.35723 30.933128,75.2865 Z M 51.55901,70.896629 c 2.200117,-0.214746 4.312414,-1.057571 5.94912,-2.373752 0.622969,-0.500969 1.56901,-1.480393 2.028411,-2.099988 2.931827,-3.954154 2.916182,-9.31864 -0.03884,-13.317467 -0.714931,-0.967467 -1.959004,-2.118954 -2.966048,-2.74531 -1.868183,-1.161962 -3.755288,-1.701694 -5.949765,-1.701694 -1.882982,0 -3.403309,0.360431 -5.083325,1.205126 -3.002593,1.509675 -5.203612,4.429801 -5.884211,7.806675 -0.181541,0.900738 -0.223592,2.606284 -0.08857,3.592524 0.294888,2.154033 1.141094,4.054359 2.563312,5.756437 1.663761,1.991151 4.264792,3.44129 6.797372,3.789702 1.189014,0.163575 1.717801,0.180936 2.672547,0.08775 z m -1.478167,-4.866512 c -0.692031,-0.06454 -1.597861,-0.309435 -2.204432,-0.59599 -0.565923,-0.267353 -1.327743,-0.82156 -1.778283,-1.293662 -0.777033,-0.814219 -1.271076,-1.689446 -1.571013,-2.783139 -0.138322,-0.504382 -0.155681,-0.675498 -0.159091,-1.568251 -0.0035,-0.920875 0.0094,-1.04987 0.159649,-1.591561 0.654591,-2.360334 2.516045,-4.087852 4.890041,-4.538191 0.656447,-0.124526 1.7727,-0.1142 2.431531,0.02249 1.893788,0.392921 3.457095,1.604577 4.305169,3.336763 0.371406,0.758594 0.525369,1.28083 0.621573,2.10835 0.369676,3.179837 -1.802388,6.148785 -4.962774,6.78351 -0.469628,0.09432 -1.351217,0.155223 -1.73237,0.119678 z M 34.619163,52.855503 c 0.713195,-0.151324 1.280226,-0.604511 1.598626,-1.277665 0.166707,-0.352448 0.186827,-0.452116 0.186827,-0.925505 0,-0.470642 -0.02053,-0.573766 -0.181873,-0.913674 -0.228259,-0.480877 -0.439313,-0.731876 -0.820369,-0.975635 -1.191171,-0.761982 -2.679047,-0.325157 -3.317016,0.973842 -0.14025,0.285569 -0.160106,0.39583 -0.160106,0.889051 0,0.531986 0.01221,0.587767 0.221407,1.011038 0.232148,0.469719 0.446134,0.698585 0.904108,0.966975 0.48335,0.283263 1.016213,0.368735 1.568396,0.251573 z"
       id="path1" /></g></svg>
