<?xml version="1.0" encoding="UTF-8" standalone="no"?>
<!-- Created with Inkscape (http://www.inkscape.org/) -->

<svg
   width="211.62933mm"
   height="152.89137mm"
   viewBox="0 0 211.62933 152.89137"
   version="1.1"
   id="svg1"
   xml:space="preserve"
   inkscape:version="1.4 (86a8ad7, 2024-10-11)"
   sodipodi:docname="emailicon.svg"
   xmlns:inkscape="http://www.inkscape.org/namespaces/inkscape"
   xmlns:sodipodi="http://sodipodi.sourceforge.net/DTD/sodipodi-0.dtd"
   xmlns="http://www.w3.org/2000/svg"
   xmlns:svg="http://www.w3.org/2000/svg"><sodipodi:namedview
     id="namedview1"
     pagecolor="#ffffff"
     bordercolor="#666666"
     borderopacity="1.0"
     inkscape:showpageshadow="2"
     inkscape:pageopacity="0.0"
     inkscape:pagecheckerboard="0"
     inkscape:deskcolor="#d1d1d1"
     inkscape:document-units="mm"
     inkscape:zoom="0.71891835"
     inkscape:cx="406.16573"
     inkscape:cy="328.96643"
     inkscape:window-width="1920"
     inkscape:window-height="1009"
     inkscape:window-x="-8"
     inkscape:window-y="1072"
     inkscape:window-maximized="1"
     inkscape:current-layer="layer1" /><defs
     id="defs1" /><g
     inkscape:label="Layer 1"
     inkscape:groupmode="layer"
     id="layer1"
     transform="translate(2.5126082,-61.528539)"><path
       style="fill:#ffffff"
       d="M 9.8037417,214.19061 C 9.9419918,214.06449 26.348282,199.29069 46.262182,181.35994 l 36.20709,-32.60138 0.56999,0.5159 c 11.16428,10.10465 20.091648,18.04962 20.281468,18.04962 0.18983,0 9.10533,-7.93441 20.28121,-18.04939 l 0.56976,-0.51568 36.20733,32.60295 c 19.91403,17.93162 36.32043,32.70532 36.45868,32.83045 0.1403,0.12699 -41.17534,0.2275 -93.51698,0.2275 -52.910858,0 -93.6588183,-0.0999 -93.5169883,-0.2293 z M -2.5126082,137.95533 V 72.271269 l 1.12448,1.02764 c 0.61845995,0.56521 16.9895502,15.3023 36.3802002,32.749101 19.39066,17.4468 35.25573,31.80509 35.25573,31.90732 0,0.10222 -15.86507,14.46051 -35.25573,31.90731 -19.39065,17.44681 -35.76174025,32.1839 -36.3802002,32.7491 l -1.12448,1.02765 z M 172.77385,170.88294 c -19.93635,-17.94255 -36.24792,-32.75997 -36.24792,-32.92761 0,-0.16764 16.31157,-14.98507 36.24792,-32.92762 l 36.24792,-32.622801 0.0672,32.775211 c 0.037,18.02636 0.037,47.52405 0,65.55042 l -0.0672,32.77521 z M 56.457542,103.73493 9.7266417,61.623039 56.523682,61.556139 c 25.73837,-0.0368 67.856098,-0.0368 93.594948,0 l 46.7979,0.0669 -46.71692,42.068751 c -25.69431,23.13782 -46.78313,42.08817 -46.86405,42.1119 -0.0809,0.0237 -21.176028,-18.9072 -46.878018,-42.06875 z"
       id="path1" /></g></svg>
