<?xml version="1.0" encoding="UTF-8" standalone="no"?>
<!-- Created with Inkscape (http://www.inkscape.org/) -->

<svg
   width="67.73333mm"
   height="67.73333mm"
   viewBox="0 0 67.73333 67.73333"
   version="1.1"
   id="svg1"
   xml:space="preserve"
   sodipodi:docname="human.svg"
   inkscape:version="1.4 (86a8ad7, 2024-10-11)"
   xmlns:inkscape="http://www.inkscape.org/namespaces/inkscape"
   xmlns:sodipodi="http://sodipodi.sourceforge.net/DTD/sodipodi-0.dtd"
   xmlns="http://www.w3.org/2000/svg"
   xmlns:svg="http://www.w3.org/2000/svg"><sodipodi:namedview
     id="namedview1"
     pagecolor="#ffffff"
     bordercolor="#666666"
     borderopacity="1.0"
     inkscape:showpageshadow="2"
     inkscape:pageopacity="0.0"
     inkscape:pagecheckerboard="0"
     inkscape:deskcolor="#d1d1d1"
     inkscape:document-units="mm"
     inkscape:zoom="0.50835204"
     inkscape:cx="267.53114"
     inkscape:cy="221.30333"
     inkscape:window-width="1920"
     inkscape:window-height="1009"
     inkscape:window-x="-8"
     inkscape:window-y="1072"
     inkscape:window-maximized="1"
     inkscape:current-layer="layer1" /><defs
     id="defs1" /><g
     inkscape:label="Layer 1"
     inkscape:groupmode="layer"
     id="layer1"
     transform="translate(-16.700963,-22.589439)"><path
       style="fill:#ffffff;stroke-width:0.275557"
       d="m 30.905896,85.524061 c -2.210333,-0.46291 -3.818525,-2.37174 -4.456908,-5.29009 -0.10639,-0.48636 -0.13499,-0.91781 -0.132898,-2.00496 0.0025,-1.23799 0.0232,-1.47225 0.195731,-2.20364 0.35269,-1.495015 0.879566,-2.604311 2.139181,-4.503879 1.361494,-2.053206 3.09922,-4.013331 4.843121,-5.46295 1.162076,-0.965976 3.009564,-2.168129 4.297368,-2.796278 1.082985,-0.528246 1.132982,-0.544886 1.31234,-0.436816 0.102553,0.06179 0.547355,0.332471 0.988447,0.601505 3.457478,2.10881 7.779847,3.177756 11.683473,2.889391 3.619377,-0.267367 6.591728,-1.233015 9.627134,-3.127629 l 0.750614,-0.468513 0.632139,0.281357 c 2.432842,1.082821 5.097703,3.048148 7.103865,5.239082 1.692931,1.848855 3.512574,4.522924 4.197791,6.168886 1.099861,2.641984 0.948312,6.027674 -0.374182,8.359474 -0.741648,1.30766 -1.729715,2.1684 -3.008096,2.62046 l -0.574731,0.20324 -19.393472,0.0115 c -15.324086,0.009 -19.485261,-0.008 -19.830917,-0.0801 z M 49.278659,61.49908 c -0.360894,-0.03295 -1.033468,-0.127812 -1.49461,-0.210804 -6.76933,-1.218268 -11.909863,-6.917264 -12.464573,-13.818712 -0.09751,-1.21323 -0.09755,-5.24054 -5.8e-5,-6.277709 0.282628,-3.006694 1.494771,-5.956104 3.406116,-8.287832 0.579946,-0.707502 1.807836,-1.889966 2.535701,-2.441896 3.098884,-2.349838 6.987147,-3.463738 10.761966,-3.083062 2.337307,0.235707 4.92021,1.129765 6.791887,2.350974 3.382746,2.207129 5.783152,5.656975 6.638517,9.540822 0.339139,1.539889 0.373774,2.025334 0.373716,5.238298 -5.8e-5,3.260554 -0.04805,3.855852 -0.434953,5.395176 -1.524467,6.065254 -6.409317,10.508653 -12.614135,11.474183 -0.904648,0.140771 -2.62796,0.20014 -3.499574,0.120562 z"
       id="path1" /></g></svg>
